<?xml version="1.0" standalone="no"?>
<!DOCTYPE svg PUBLIC "-//W3C//DTD SVG 20010904//EN"
 "http://www.w3.org/TR/2001/REC-SVG-20010904/DTD/svg10.dtd">
<svg version="1.0" xmlns="http://www.w3.org/2000/svg"
 width="2000.000000pt" height="1500.000000pt" viewBox="0 0 2000.000000 1500.000000"
 preserveAspectRatio="xMidYMid meet">

<g transform="translate(0.000000,1500.000000) scale(0.100000,-0.100000)"
fill="#000000" stroke="none">
<path d="M5060 10970 l0 -1490 150 0 150 0 0 1335 0 1335 4640 0 4640 0 0
-1335 0 -1335 150 0 150 0 0 1490 0 1490 -4940 0 -4940 0 0 -1490z"/>
<path d="M6200 9229 c-240 -14 -420 -58 -595 -143 -204 -100 -341 -229 -426
-400 -79 -161 -93 -227 -93 -446 0 -169 3 -193 27 -284 87 -324 267 -504 723
-722 462 -221 519 -251 578 -304 88 -81 109 -141 82 -235 -21 -69 -89 -133
-173 -161 -89 -29 -396 -27 -551 4 -213 43 -426 113 -623 206 -42 20 -79 36
-83 36 -3 0 -6 -182 -6 -404 l0 -404 98 -40 c260 -106 450 -146 765 -161 405
-19 679 27 932 157 221 114 402 301 487 503 53 128 71 228 71 399 0 303 -73
492 -260 671 -114 108 -240 188 -493 311 -124 61 -279 136 -346 169 -149 73
-228 123 -276 177 -114 127 -44 295 139 332 74 16 260 13 358 -4 165 -29 349
-86 523 -160 75 -32 83 -34 89 -18 3 9 66 167 139 350 72 182 129 334 125 336
-16 11 -175 71 -266 103 -315 107 -632 152 -945 132z"/>
<path d="M8835 8459 c-282 -26 -588 -105 -772 -198 l-52 -26 125 -285 c69
-157 129 -289 134 -293 4 -5 72 16 151 46 340 130 625 164 761 90 84 -46 124
-118 135 -245 5 -53 3 -68 -8 -72 -8 -2 -144 -9 -304 -15 -159 -5 -337 -17
-395 -26 -515 -78 -795 -303 -851 -685 -16 -111 -6 -309 21 -420 71 -289 271
-486 555 -545 102 -21 327 -22 456 -1 227 37 367 112 532 286 48 50 90 89 95
86 4 -2 45 -81 92 -175 l85 -171 312 0 313 0 0 878 c0 530 -4 913 -10 967 -20
176 -61 293 -146 421 -136 206 -359 334 -656 378 -115 17 -414 20 -573 5z
m485 -1612 c0 -204 -37 -291 -159 -374 -80 -55 -126 -68 -241 -68 -78 0 -102
4 -136 22 -81 43 -114 106 -114 219 0 154 86 254 260 299 59 16 196 29 338 33
l52 2 0 -133z"/>
<path d="M12223 8455 c-214 -39 -407 -152 -508 -300 -32 -46 -43 -55 -64 -53
-24 3 -31 16 -82 163 l-56 160 -341 3 -342 2 0 -1310 0 -1310 449 0 449 0 5
698 c6 724 8 777 52 941 54 207 172 311 352 311 123 0 187 -42 240 -157 55
-118 55 -133 60 -995 l4 -798 450 0 449 0 0 675 c0 697 5 807 41 950 56 222
170 325 357 325 151 -1 225 -65 281 -245 13 -43 16 -169 21 -875 l5 -825 448
-3 447 -2 0 932 c0 997 -2 1035 -50 1193 -74 238 -236 407 -467 484 -148 50
-406 66 -578 36 -102 -18 -239 -67 -322 -116 -32 -19 -98 -73 -146 -121 -113
-113 -130 -115 -198 -30 -115 144 -303 238 -544 271 -102 15 -323 12 -412 -4z"/>
<path d="M5060 4030 l0 -1490 4940 0 4940 0 0 1490 0 1490 -150 0 -150 0 0
-1335 0 -1335 -4640 0 -4640 0 0 1335 0 1335 -150 0 -150 0 0 -1490z"/>
</g>
</svg>
